<svg width="13" height="18" viewBox="0 0 13 18" fill="none" xmlns="http://www.w3.org/2000/svg">
<path fill-rule="evenodd" clip-rule="evenodd" d="M5.70315 0.0372476C4.26254 0.230066 2.93421 0.906653 1.90654 1.97099C0.867185 3.04739 0.221601 4.43367 0.0459361 5.96626C-0.046537 6.77339 -0.000977915 7.48973 0.197009 8.34151C0.77583 10.8314 2.66286 13.9289 5.52373 17.0852C6.26155 17.8992 6.3693 18 6.50171 18C6.63019 18 6.8319 17.8058 7.61664 16.9268C10.7692 13.3955 12.6263 10.115 12.9511 7.50405C13.1982 5.51761 12.4981 3.4369 11.0887 1.9694C10.1212 0.96193 8.93138 0.327073 7.53229 0.0716593C7.1018 -0.00694571 6.16488 -0.0245738 5.70315 0.0372476ZM7.22744 3.74238C8.3298 4.05595 9.10332 4.86836 9.39822 6.0222C9.491 6.38529 9.48581 7.12088 9.38782 7.49705C9.18868 8.26132 8.74037 8.91567 8.13899 9.31978C6.20705 10.618 3.67674 9.30022 3.52821 6.91853C3.47377 6.0461 3.78801 5.19661 4.4004 4.56045C4.84664 4.09691 5.35409 3.81725 5.97414 3.69319C6.29193 3.62957 6.91716 3.65413 7.22744 3.74238Z" fill="#377ED9"/>
</svg>
