<svg width="21" height="14" viewBox="0 0 21 14" fill="none" xmlns="http://www.w3.org/2000/svg">
<path fill-rule="evenodd" clip-rule="evenodd" d="M1.91883 0.220485C1.87585 0.229534 1.75495 0.26229 1.6502 0.29331L1.45976 0.349703L3.56478 2.30249C7.1112 5.59237 9.40186 7.6642 9.61203 7.7721C10.1343 8.04016 10.7783 8.04016 11.3005 7.7721C11.5107 7.6642 13.8014 5.59237 17.3474 2.30285L19.452 0.350499L19.2619 0.282343C19.0781 0.216395 18.7943 0.214006 10.5344 0.209119C5.83883 0.206368 1.96181 0.211472 1.91883 0.220485ZM0.545447 1.3083C0.476444 1.47307 0.472654 1.71739 0.462651 6.60269C0.45218 11.7223 0.456282 11.9116 0.583582 12.1902L0.631056 12.2941L3.6584 9.50536L6.68574 6.71664L4.96652 5.119C4.02096 4.24032 2.65566 2.98459 1.93254 2.32851L0.61781 1.13562L0.545447 1.3083ZM17.252 3.92187L14.2268 6.71128L17.252 9.50069C19.5001 11.5736 20.2853 12.2767 20.3087 12.2379C20.3261 12.2092 20.367 12.0907 20.3996 11.9746C20.4514 11.7906 20.459 11.1141 20.459 6.71128C20.459 2.30846 20.4514 1.63196 20.3996 1.44795C20.367 1.33183 20.3261 1.21333 20.3087 1.18462C20.2853 1.14586 19.5001 1.84896 17.252 3.92187ZM4.47319 10.2889L1.45116 13.0702L1.66544 13.1393C1.87381 13.2065 2.1181 13.2084 10.4563 13.2084C18.7359 13.2084 19.0401 13.206 19.2428 13.1406L19.4528 13.0729L17.7385 11.4824C16.7956 10.6075 15.4307 9.35334 14.7053 8.69516L13.3864 7.49853L12.8489 7.98265C12.5533 8.2489 12.2074 8.53065 12.0802 8.60872C11.103 9.20863 9.80955 9.20863 8.83241 8.60872C8.70519 8.53065 8.36154 8.25097 8.06869 7.98717C7.77584 7.72338 7.52698 7.50758 7.51569 7.50758C7.5044 7.50758 6.13528 8.75919 4.47319 10.2889Z" fill="#377ED9"/>
</svg>
