<svg width="20" height="20" viewBox="0 0 20 20" fill="none" xmlns="http://www.w3.org/2000/svg">
<path fill-rule="evenodd" clip-rule="evenodd" d="M10.3264 0.0236554C10.3264 0.0454693 10.2824 0.36568 10.2286 0.735187C10.1748 1.10469 10.1308 1.43816 10.1308 1.47623C10.1308 1.53229 10.1883 1.55454 10.434 1.59371C11.6347 1.78491 13.0747 2.35129 14.1188 3.04296C14.7612 3.46853 15.1681 3.79789 15.6997 4.32295C17.0779 5.68381 17.9831 7.33014 18.4023 9.23791C18.476 9.57357 18.4988 9.62794 18.5634 9.62255C18.7574 9.60629 19.9719 9.39964 19.9961 9.37881C20.0111 9.36579 19.9814 9.16059 19.9299 8.92275C19.1914 5.51036 16.9285 2.61263 13.8015 1.07526C12.8099 0.587728 11.8103 0.251607 10.8736 0.0906608C10.6695 0.0555944 10.4629 0.0172442 10.4144 0.00539899C10.366 -0.00640709 10.3264 0.00180244 10.3264 0.0236554ZM3.06458 1.94699C2.68815 2.02522 2.51565 2.15919 1.51066 3.15387C0.975621 3.68346 0.478564 4.20793 0.406081 4.31939C-0.29634 5.39965 -0.0861259 7.19018 1.02604 9.59999C2.27097 12.2975 4.51065 15.0196 7.07972 16.9577C8.59252 18.099 10.3959 19.082 11.8911 19.5804C13.1266 19.9923 14.2885 20.1088 15.0283 19.8949C15.582 19.7349 15.7051 19.6416 16.8079 18.5447C17.7362 17.6215 17.8444 17.5001 17.9592 17.2542C18.0672 17.0229 18.0859 16.9389 18.0859 16.6851C18.0859 16.4317 18.0672 16.3471 17.9596 16.116C17.8427 15.865 17.727 15.7388 16.417 14.4331C15.2628 13.2826 14.9611 13.0025 14.7857 12.9188C14.4894 12.7772 14.2088 12.7295 13.9545 12.7774C13.5328 12.8568 13.3754 12.9741 12.395 13.9387C11.8869 14.4387 11.4412 14.8478 11.4045 14.8478C11.3096 14.8478 10.3877 14.373 10.0321 14.141C8.65026 13.2395 7.07999 11.7113 6.07544 10.2904C5.72992 9.80167 5.56813 9.53052 5.33718 9.05316C5.19437 8.75789 5.15979 8.64988 5.18095 8.56501C5.19848 8.49483 5.52667 8.13573 6.1034 7.55566C6.90358 6.7509 7.0115 6.62701 7.11931 6.38936C7.32436 5.93741 7.28082 5.50653 6.98537 5.0636C6.9105 4.95133 6.2454 4.25809 5.50738 3.52303C4.30243 2.32291 4.13958 2.17463 3.91126 2.06943C3.63173 1.94066 3.31535 1.89488 3.06458 1.94699ZM10.1189 4.09285C10.0648 4.37588 9.92202 5.50434 9.9383 5.5206C9.94862 5.53092 10.0974 5.56829 10.2689 5.60363C12.274 6.01681 13.8759 7.57689 14.3565 9.58475C14.397 9.75398 14.4354 9.89667 14.4417 9.90179C14.4598 9.91649 15.9198 9.66176 15.9415 9.6401C15.9657 9.61586 15.8986 9.28447 15.7967 8.92517C15.0908 6.43612 12.9926 4.52607 10.4378 4.04687L10.1385 3.99073L10.1189 4.09285Z" fill="#377ED9"/>
</svg>
