<svg width="28" height="28" viewBox="0 0 28 28" fill="none" xmlns="http://www.w3.org/2000/svg">
<path fill-rule="evenodd" clip-rule="evenodd" d="M14.457 0.0331176C14.457 0.063657 14.3954 0.511952 14.3201 1.02926C14.2448 1.54657 14.1832 2.01342 14.1832 2.06673C14.1832 2.14521 14.2636 2.17635 14.6076 2.23119C16.2885 2.49888 18.3046 3.29181 19.7664 4.26015C20.6657 4.85594 21.2353 5.31704 21.9796 6.05213C23.909 7.95734 25.1763 10.2622 25.7632 12.9331C25.8664 13.403 25.8983 13.4791 25.9888 13.4716C26.2603 13.4488 27.9606 13.1595 27.9945 13.1303C28.0156 13.1121 27.9739 12.8248 27.9019 12.4918C26.868 7.7145 23.6999 3.65768 19.3221 1.50536C17.9339 0.82282 16.5345 0.352249 15.223 0.126925C14.9373 0.0778322 14.648 0.0241418 14.5802 0.00755859C14.5124 -0.00896993 14.457 0.00252341 14.457 0.0331176ZM4.29041 2.72579C3.76342 2.8353 3.52191 3.02286 2.11493 4.41542C1.36587 5.15685 0.66999 5.89111 0.568513 6.04714C-0.414876 7.5595 -0.120576 10.0663 1.43646 13.44C3.17936 17.2165 6.3149 21.0275 9.91161 23.7408C12.0295 25.3386 14.5542 26.7148 16.6475 27.4126C18.3772 27.9892 20.0039 28.1523 21.0397 27.8529C21.8148 27.6288 21.9871 27.4982 23.531 25.9626C24.8306 24.6701 24.9822 24.5001 25.1429 24.1559C25.2941 23.832 25.3203 23.7144 25.3203 23.3592C25.3203 23.0044 25.294 22.8859 25.1434 22.5624C24.9797 22.211 24.8178 22.0343 22.9838 20.2063C21.368 18.5956 20.9455 18.2034 20.7 18.0863C20.2851 17.8881 19.8923 17.8214 19.5363 17.8884C18.9459 17.9996 18.7255 18.1637 17.353 19.5142C16.6416 20.2142 16.0176 20.7869 15.9663 20.7869C15.8335 20.7869 14.5428 20.1222 14.0449 19.7974C12.1104 18.5353 9.91199 16.3959 8.50561 14.4066C8.02188 13.7223 7.79538 13.3427 7.47206 12.6744C7.27212 12.261 7.22371 12.1098 7.25333 11.991C7.27787 11.8928 7.73733 11.39 8.54477 10.5779C9.66501 9.45125 9.8161 9.27781 9.96703 8.94511C10.2541 8.31237 10.1931 7.70914 9.77952 7.08904C9.6747 6.93186 8.74356 5.96133 7.71033 4.93224C6.0234 3.25207 5.79542 3.04448 5.47576 2.8972C5.08442 2.71692 4.6415 2.65283 4.29041 2.72579ZM14.1665 5.72998C14.0907 6.12623 13.8908 7.70607 13.9136 7.72884C13.9281 7.74329 14.1363 7.79561 14.3764 7.84509C17.1837 8.42353 19.4262 10.6076 20.0991 13.4186C20.1558 13.6556 20.2095 13.8553 20.2184 13.8625C20.2438 13.8831 22.2877 13.5265 22.3181 13.4961C22.352 13.4622 22.258 12.9983 22.1154 12.4952C21.1271 9.01057 18.1896 6.3365 14.6129 5.66562L14.1938 5.58703L14.1665 5.72998Z" fill="white"/>
</svg>
